<?xml version="1.0" encoding="utf-8"?>
<!-- Generator: Adobe Illustrator 23.1.0, SVG Export Plug-In . SVG Version: 6.00 Build 0)  -->
<svg version="1.1" id="Layer_1" xmlns="http://www.w3.org/2000/svg" xmlns:xlink="http://www.w3.org/1999/xlink" x="0px" y="0px"
	 viewBox="0 0 800 800" style="enable-background:new 0 0 800 800;" xml:space="preserve">
<style type="text/css">
	.st0{fill:#CCCCCC;}
</style>
<g>
	<g>
		<path class="st0" d="M389,550.2c-22.93-0.04-45.84-4.19-67.45-12.34c-2.71-0.99-5.34-2.18-8.03-3.26
			c-2.66-1.13-5.24-2.44-7.87-3.65c-2.61-1.26-5.14-2.66-7.72-3.99c-2.54-1.39-5.02-2.92-7.53-4.37
			c-9.91-6.09-19.28-13.13-27.88-21.1c-8.55-8-16.41-16.83-23.2-26.47c-1.65-2.44-3.33-4.86-4.91-7.36
			c-1.51-2.53-3.09-5.03-4.53-7.61c-1.36-2.62-2.82-5.19-4.1-7.85l-1.89-4.01c-0.61-1.34-1.29-2.66-1.81-4.05
			c-9.3-21.76-13.86-45.55-13.41-69.14c0.26-11.8,1.71-23.55,4.33-35c2.64-11.45,6.42-22.6,11.24-33.24
			c9.62-21.3,23.34-40.49,39.84-56.69c8.27-8.09,17.27-15.4,26.84-21.88c9.57-6.5,19.81-11.96,30.42-16.58
			c2.69-1.07,5.33-2.26,8.06-3.24l4.1-1.45c1.37-0.47,2.72-1.01,4.12-1.39c2.78-0.82,5.53-1.76,8.33-2.49
			c2.82-0.69,5.61-1.48,8.45-2.09c11.35-2.48,22.95-3.97,34.62-4.28c23.32-0.59,46.97,3.27,68.92,11.95
			c21.97,8.59,42.16,21.81,59.1,38.38c8.47,8.29,16.14,17.41,22.85,27.21c6.69,9.81,12.43,20.28,17.09,31.23
			c9.38,21.89,14.09,45.77,14.02,69.57c-0.13,23.8-5.03,47.6-14.51,69.36c-9.45,21.79-23.61,41.35-40.84,57.26
			c-8.62,7.96-18.02,14.99-27.94,21.08c-2.52,1.46-5,2.98-7.54,4.37c-2.58,1.33-5.12,2.73-7.73,3.99c-2.64,1.2-5.22,2.52-7.88,3.65
			c-2.68,1.08-5.32,2.26-8.03,3.26C434.87,546.11,411.93,550.23,389,550.2z M389,548.8c22.75-0.05,45.48-4.94,66.03-14.36
			c2.58-1.15,5.08-2.48,7.61-3.7c2.51-1.28,4.94-2.71,7.41-4.07c2.43-1.42,4.77-2.99,7.16-4.47c2.35-1.55,4.61-3.21,6.92-4.81
			c9.06-6.62,17.39-14.15,24.92-22.34c30.06-32.82,47.33-76.21,46.98-120.04c-0.09-21.88-4.39-43.67-12.58-63.95
			c-8.21-20.28-20.45-38.96-35.79-54.7c-30.72-31.48-73.88-50.8-118.65-52.01c-22.33-0.6-44.95,3.2-65.85,11.66
			c-20.91,8.38-40.12,21.15-55.89,37.27c-15.8,16.11-28.01,35.56-35.9,56.46c-3.94,10.45-6.84,21.26-8.65,32.2
			c-1.84,10.94-2.61,22.03-2.38,33.07c0.46,22.09,4.92,43.96,13.19,64.38c8.27,20.39,20.16,39.44,35.29,55.8
			c7.56,8.18,15.91,15.69,24.98,22.32c2.31,1.59,4.58,3.26,6.92,4.81c2.39,1.48,4.73,3.05,7.17,4.47c2.47,1.36,4.9,2.79,7.41,4.07
			c2.54,1.22,5.04,2.55,7.62,3.7C343.5,543.96,366.25,548.83,389,548.8z"/>
		<path class="st0" d="M389,205.2c-22.23-0.03-44.46,4.74-64.54,13.95c-2.52,1.12-4.96,2.42-7.44,3.62
			c-2.45,1.25-4.83,2.65-7.24,3.98c-2.37,1.39-4.66,2.92-6.99,4.37c-2.29,1.51-4.51,3.14-6.76,4.7c-8.85,6.48-17,13.83-24.38,21.82
			c-14.76,15.99-26.35,34.59-34.42,54.51c-8.07,19.93-12.43,41.28-12.89,62.85c-0.23,10.78,0.52,21.6,2.3,32.29
			c1.76,10.69,4.58,21.24,8.42,31.45c7.68,20.41,19.6,39.43,35.03,55.16c15.4,15.75,34.17,28.22,54.59,36.4
			c20.41,8.26,42.51,11.96,64.32,11.36c43.73-1.21,85.85-20.11,115.83-50.84c14.97-15.37,26.92-33.61,34.92-53.41
			c7.99-19.8,12.19-41.06,12.27-62.42c0.35-42.79-16.49-85.13-45.81-117.22c-7.35-8-15.48-15.36-24.32-21.84
			c-2.25-1.56-4.46-3.19-6.75-4.7c-2.33-1.45-4.62-2.98-6.99-4.38c-2.4-1.33-4.78-2.73-7.23-3.98c-2.48-1.2-4.92-2.5-7.43-3.62
			C433.43,210.04,411.23,205.25,389,205.2z M389,203.8c22.41-0.03,44.82,3.99,65.96,11.93c2.65,0.97,5.23,2.12,7.85,3.18
			c2.6,1.1,5.13,2.38,7.7,3.56c2.55,1.22,5.03,2.6,7.56,3.89c2.49,1.36,4.91,2.84,7.38,4.27c9.7,5.94,18.9,12.81,27.33,20.58
			c16.86,15.54,30.72,34.66,39.97,55.96c9.28,21.28,14.08,44.56,14.21,67.83c0.07,23.28-4.54,46.63-13.72,68.04
			c-4.56,10.71-10.18,20.95-16.72,30.54c-6.56,9.58-14.07,18.5-22.35,26.6c-16.57,16.2-36.31,29.12-57.8,37.51
			c-2.71,0.98-5.38,2.06-8.12,2.94c-2.75,0.84-5.47,1.79-8.25,2.54l-4.18,1.07c-1.4,0.34-2.77,0.75-4.19,1.01
			c-2.82,0.55-5.62,1.2-8.45,1.66c-11.31,1.93-22.78,2.73-34.19,2.43c-11.41-0.3-22.75-1.78-33.84-4.2
			c-2.78-0.59-5.51-1.37-8.26-2.04c-2.74-0.72-5.43-1.64-8.14-2.44c-2.71-0.83-5.35-1.86-8.03-2.78c-2.66-0.96-5.25-2.12-7.87-3.17
			c-10.37-4.53-20.38-9.86-29.72-16.21c-9.35-6.34-18.16-13.47-26.24-21.38c-16.13-15.83-29.55-34.58-38.97-55.39
			c-4.72-10.39-8.42-21.3-11.01-32.49c-2.57-11.2-3.99-22.69-4.26-34.22c-0.45-23.07,4.01-46.34,13.1-67.61
			c0.51-1.35,1.17-2.64,1.78-3.96l1.84-3.92c1.26-2.6,2.68-5.12,4.02-7.68c1.41-2.52,2.96-4.96,4.43-7.44
			c1.54-2.44,3.19-4.81,4.8-7.19c6.64-9.42,14.34-18.05,22.7-25.87c8.41-7.78,17.58-14.66,27.27-20.6c2.46-1.42,4.88-2.91,7.37-4.27
			c2.53-1.3,5-2.67,7.55-3.89c2.58-1.18,5.1-2.46,7.7-3.56c2.62-1.06,5.2-2.21,7.85-3.18C344.2,207.89,366.59,203.84,389,203.8z"/>
	</g>
</g>
</svg>
